solid aeromesh_landing_skid
  facet normal 0 0 -1
    outer loop
      vertex 0 0 0
      vertex 16 20 0
      vertex 16 0 0
    endloop
  endfacet
  facet normal 0 0 -1
   outer loop
      vertex 0 0 0
      vertex 0 20 0
      vertex 16 20 0
    endloop
  endfacet
  facet normal 0 0 1
    outer loop
       vertex 0 0 35
       vertex 16 0 35
       vertex 16 20 35
    endloop
  endfacet
  facet normal 0 0 1
     outer loop
       vertex 0 0 35
       vertex 16 20 35
       vertex 0 20 35
    endloop
  endfacet
  facet normal 0 -1 0
     outer loop
       vertex 0 0 0
       vertex 16 0 0
       vertex 16 0 35
    endloop
  endfacet
  facet normal 0 -1 0
     outer loop
      vertex 0 0 0
      vertex 16 0 35
      vertex 0 0 35
    endloop
  endfacet
  facet normal 0 1 0
    outer loop
      vertex 0 20 0
      vertex 16 20 35
      vertex 16 20 0
    endloop
  endfacet
  facet normal 0 1 0
    outer loop
      vertex 0 20 0
      vertex 0 20 35
      vertex 16 20 35
    endloop
  endfacet
  facet normal -1 0 0
    outer loop
      vertex 0 0 0
      vertex 0 0 35
      vertex 0 20 35
    endloop
  endfacet
  facet normal -1 0 0
    outer loop
      vertex 0 0 0
      vertex 0 20 35
      vertex 0 20 0
    endloop
  endfacet
  facet normal 1 0 0
    outer loop
      vertex 16 0 0
      vertex 16 20 0
      vertex 16 20 35
    endloop
  endfacet
  facet normal 1 0 0
    outer loop
      vertex 16 0 0
      vertex 16 20 35
      vertex 16 0 35
    endloop
  endfacet
endsolid aeromesh_landing_skid